Coordinates
version=1
nRows=4
nColumns=63
inDegrees=yes

Units are S.I. units (second, meters, Newtons, ...)
If the header above contains a line with 'inDegrees', this indicates whether rotational values are in degrees (yes) or radians (no).

endheader
time	pelvis_tilt	pelvis_list	pelvis_rotation	pelvis_tx	pelvis_ty	pelvis_tz	hip_flexion_r	hip_adduction_r	hip_rotation_r	knee_angle_r	knee_angle_r_beta	ankle_angle_r	subtalar_angle_r	mtp_angle_r	hip_flexion_l	hip_adduction_l	hip_rotation_l	knee_angle_l	knee_angle_l_beta	ankle_angle_l	subtalar_angle_l	mtp_angle_l	L5_S1_Flex_Ext	L5_S1_Lat_Bending	L5_S1_axial_rotation	L4_L5_Flex_Ext	L4_L5_Lat_Bending	L4_L5_axial_rotation	L3_L4_Flex_Ext	L3_L4_Lat_Bending	L3_L4_axial_rotation	L2_L3_Flex_Ext	L2_L3_Lat_Bending	L2_L3_axial_rotation	L1_L2_Flex_Ext	L1_L2_Lat_Bending	L1_L2_axial_rotation	L1_T12_Flex_Ext	L1_T12_Lat_Bending	L1_T12_axial_rotation	Abs_r3	Abs_r2	Abs_r1	Abs_t1	Abs_t2	neck_flexion	neck_bending	neck_rotation	arm_flex_r	arm_add_r	arm_rot_r	elbow_flex_r	pro_sup_r	wrist_flex_r	wrist_dev_r	arm_flex_l	arm_add_l	arm_rot_l	elbow_flex_l	pro_sup_l	wrist_flex_l	wrist_dev_l
      0.00000000	     -0.69519836	     -3.50647073	     96.22438349	      0.18713013	      0.67087773	      0.94310004	     12.45571180	     -3.04254374	     -2.66368385	     18.45968788	      0.32218233	     27.37324102	     -0.70421238	      0.00000000	     10.36262946	      0.65273325	      3.47051226	     11.35054124	      0.19810432	     29.87039740	     -2.48461350	      0.00000000	      0.43054393	     -0.19378462	      1.05048265	      0.79956313	     -0.25773354	      1.11613781	      0.70734062	     -0.47116792	      1.11613781	      0.49206866	     -0.47116792	      0.91917231	      0.39980309	     -0.39516559	      0.85351715	      0.24601280	     -0.30017237	      0.78786198	      3.07533222	     -2.19213035	      5.84246933	      0.00000000	      0.00000000	     28.26247405	     -2.61680665	    -12.51587768	     15.83129682	     -1.20619425	     89.00930577	     22.56466750	     80.70850282	     -7.85899515	    -11.37702059	     20.52267971	      0.48278833	     95.86410906	     29.21045392	     49.44019460	     -7.60788875	    -12.72491092
      0.02500000	     -0.48263755	     -3.18533632	     95.94614100	      0.18810203	      0.67178502	      0.94166156	     11.55800938	     -2.62700418	     -2.37818029	     17.41955596	      0.30402861	     26.96296448	     -1.26094397	      0.00000000	      9.42744473	      0.33958294	      3.68830793	     10.32056129	      0.18012778	     29.33996076	     -2.74074412	      0.00000000	      0.37991986	     -0.16592949	      1.02748981	      0.70554918	     -0.22068622	      1.09170793	      0.62417035	     -0.40344095	      1.09170793	      0.43421041	     -0.40344095	      0.89905359	      0.35279359	     -0.33836341	      0.83483547	      0.21708621	     -0.25702477	      0.77061736	      2.71372960	     -1.87702753	      5.71459010	      0.00000000	      0.00000000	     28.19354719	     -1.35547182	    -11.59903839	     15.40494592	     -1.33042787	     87.46040220	     22.91164946	     78.70930909	     -6.49596670	    -10.50662265	     20.59203077	      0.64131606	     97.12499721	     28.73264704	     46.94396190	     -6.82573608	    -11.42835842
      0.05000000	     -0.33628526	     -2.95508013	     95.38211021	      0.18946305	      0.67245223	      0.94047537	     10.90717892	     -2.12463719	     -0.97055299	     16.54841265	      0.28882429	     26.32289031	     -2.85312250	      0.00000000	      8.58387282	      0.17531694	      5.09708928	      9.33774054	      0.16297432	     28.43169894	     -5.14733295	      0.00000000	      0.34850912	     -0.15639159	      1.14055972	      0.64721629	     -0.20800081	      1.21184471	      0.57256564	     -0.38025051	      1.21184471	      0.39831108	     -0.38025051	      0.99798976	      0.32362557	     -0.31891373	      0.92670478	      0.19913811	     -0.24225057	      0.85541979	      2.48936581	     -1.76913293	      6.34345102	      0.00000000	      0.00000000	     28.11434770	     -0.58572900	    -11.90392733	     15.02789002	     -1.46311801	     86.42318992	     23.08834593	     74.95949973	     -5.28270575	    -10.17531098	     21.78794157	      1.27552024	    104.72108746	     28.24299915	     37.44033197	     -7.27291009	    -12.90214658
      0.07500000	     -0.21538813	     -2.79184689	     94.95859001	      0.19046514	      0.67286537	      0.93964789	     10.40797671	     -1.83897948	     -0.46259413	     15.85952627	      0.27680095	     26.07348013	     -3.04241092	      0.00000000	      8.02343374	     -0.04120683	      5.11132005	      8.73644477	      0.15247973	     28.12185315	     -5.54375837	      0.00000000	      0.32755970	     -0.14573026	      1.19606715	      0.60831111	     -0.19382124	      1.27082135	      0.53814782	     -0.35432855	      1.27082135	      0.37436798	     -0.35432855	      1.04655875	      0.30417193	     -0.29717314	      0.97180456	      0.18716761	     -0.22573617	      0.89705036	      2.33972615	     -1.64852984	      6.65216666	      0.00000000	      0.00000000	     28.06077298	      0.09945651	    -11.73982871	     14.91418261	     -1.53849259	     85.83547194	     23.14655525	     73.10550782	     -4.57573002	    -10.09614213	     22.05107575	      1.50037852	    106.99228912	     28.00071523	     34.51346356	     -7.36920785	    -13.20659466
